<svg width="486" height="486" viewBox="0 0 486 486" fill="none" xmlns="http://www.w3.org/2000/svg">
<rect x="7" y="88" width="102" height="386" fill="#665842"/>
<rect x="33" y="34" width="49" height="21" fill="#665842"/>
<rect x="33" y="55" width="49" height="9" fill="#5A4F3D"/>
<rect x="21" y="64" width="72" height="24" fill="#665842"/>
<rect x="21" y="79" width="72" height="9" fill="#5A4F3D"/>
<rect x="16" y="104" width="83" height="9" fill="#F9F4CC"/>
<rect x="16" y="123" width="83" height="9" fill="#F9F4CC"/>
<rect x="16" y="142" width="83" height="9" fill="#F9F4CC"/>
<rect x="16" y="180" width="83" height="10" fill="#F9F4CC"/>
<rect x="16" y="219" width="83" height="9" fill="#F9F4CC"/>
<rect x="16" y="200" width="83" height="9" fill="#F9F4CC"/>
<rect x="16" y="238" width="83" height="9" fill="#F9F4CC"/>
<rect x="16" y="257" width="83" height="10" fill="#F9F4CC"/>
<rect x="16" y="277" width="83" height="9" fill="#F9F4CC"/>
<rect x="16" y="296" width="83" height="9" fill="#F9F4CC"/>
<rect x="16" y="353" width="83" height="10" fill="#F9F4CC"/>
<rect x="16" y="315" width="83" height="9" fill="#F9F4CC"/>
<rect x="16" y="334" width="83" height="10" fill="#F9F4CC"/>
<rect x="16" y="373" width="83" height="9" fill="#F9F4CC"/>
<rect x="16" y="392" width="83" height="9" fill="#F9F4CC"/>
<rect x="16" y="411" width="83" height="10" fill="#F9F4CC"/>
<rect x="16" y="430" width="83" height="10" fill="#F9F4CC"/>
<rect x="16" y="450" width="83" height="9" fill="#F9F4CC"/>
<rect x="16" y="161" width="83" height="9" fill="#F9F4CC"/>
<rect x="343" y="335" width="136" height="139" fill="#6B6B6B"/>
<rect x="360" y="79" width="98" height="256" fill="#6B6B6B"/>
<rect x="388" width="43" height="31" fill="#6B6B6B"/>
<rect x="375" y="36" width="69" height="36" fill="#6B6B6B"/>
<rect x="388" y="31" width="43" height="5" fill="#656565"/>
<rect x="375" y="72" width="69" height="7" fill="#656565"/>
<rect x="399" y="90" width="20" height="20" fill="white"/>
<rect x="428" y="90" width="20" height="20" fill="white"/>
<rect x="371" y="90" width="20" height="20" fill="white"/>
<rect x="399" y="121" width="20" height="20" fill="white"/>
<rect x="428" y="121" width="20" height="20" fill="white"/>
<rect x="371" y="121" width="20" height="20" fill="white"/>
<rect x="399" y="152" width="20" height="20" fill="white"/>
<rect x="428" y="152" width="20" height="20" fill="white"/>
<rect x="371" y="152" width="20" height="20" fill="white"/>
<rect x="399" y="182" width="20" height="20" fill="white"/>
<rect x="428" y="182" width="20" height="20" fill="white"/>
<rect x="399" y="274" width="20" height="20" fill="white"/>
<rect x="428" y="274" width="20" height="20" fill="white"/>
<rect x="371" y="274" width="20" height="20" fill="white"/>
<rect x="399" y="305" width="20" height="20" fill="white"/>
<rect x="428" y="305" width="20" height="20" fill="white"/>
<rect x="371" y="305" width="20" height="20" fill="white"/>
<rect x="371" y="182" width="20" height="20" fill="white"/>
<rect x="399" y="213" width="20" height="20" fill="white"/>
<rect x="428" y="213" width="20" height="20" fill="white"/>
<rect x="371" y="213" width="20" height="20" fill="white"/>
<rect x="399" y="244" width="20" height="20" fill="white"/>
<rect x="428" y="244" width="20" height="20" fill="white"/>
<rect x="371" y="244" width="20" height="20" fill="white"/>
<rect x="362" y="348" width="108" height="8" fill="white"/>
<rect x="362" y="365" width="108" height="9" fill="white"/>
<rect x="362" y="453" width="108" height="9" fill="white"/>
<rect x="362" y="435" width="108" height="9" fill="white"/>
<rect x="362" y="418" width="108" height="9" fill="white"/>
<rect x="362" y="400" width="108" height="9" fill="white"/>
<rect x="362" y="383" width="108" height="9" fill="white"/>
<rect x="364" y="79" width="14" height="395" fill="#494C52" fill-opacity="0.15"/>
<rect x="122" y="96" width="51" height="364" fill="#CED4DD"/>
<rect x="137" y="403" width="21" height="36" fill="#69B0E0" stroke="white" stroke-width="4"/>
<rect x="137" y="288" width="21" height="37" fill="#69B0E0" stroke="white" stroke-width="4"/>
<rect x="137" y="346" width="21" height="36" fill="#69B0E0" stroke="white" stroke-width="4"/>
<rect x="137" y="231" width="21" height="36" fill="#69B0E0" stroke="white" stroke-width="4"/>
<rect x="137" y="116" width="21" height="37" fill="#69B0E0" stroke="white" stroke-width="4"/>
<rect x="137" y="174" width="21" height="36" fill="#69B0E0" stroke="white" stroke-width="4"/>
<rect x="313" y="96" width="51" height="364" fill="#CED4DD"/>
<rect x="328" y="403" width="21" height="36" fill="#69B0E0" stroke="white" stroke-width="4"/>
<rect x="328" y="288" width="21" height="37" fill="#69B0E0" stroke="white" stroke-width="4"/>
<rect x="328" y="346" width="21" height="36" fill="#69B0E0" stroke="white" stroke-width="4"/>
<rect x="328" y="231" width="21" height="36" fill="#69B0E0" stroke="white" stroke-width="4"/>
<rect x="328" y="116" width="21" height="37" fill="#69B0E0" stroke="white" stroke-width="4"/>
<rect x="328" y="174" width="21" height="36" fill="#69B0E0" stroke="white" stroke-width="4"/>
<rect x="173" y="58" width="140" height="402" fill="white"/>
<rect x="184.5" y="107.5" width="17" height="29" fill="#69B0E0" stroke="white" stroke-width="3"/>
<rect x="184.5" y="152.5" width="17" height="29" fill="#69B0E0" stroke="white" stroke-width="3"/>
<rect x="184.5" y="197.5" width="17" height="29" fill="#69B0E0" stroke="white" stroke-width="3"/>
<rect x="184.5" y="242.5" width="17" height="29" fill="#69B0E0" stroke="white" stroke-width="3"/>
<rect x="184.5" y="287.5" width="17" height="29" fill="#69B0E0" stroke="white" stroke-width="3"/>
<rect x="184.5" y="333.5" width="17" height="29" fill="#69B0E0" stroke="white" stroke-width="3"/>
<rect x="184.5" y="378.5" width="17" height="29" fill="#69B0E0" stroke="white" stroke-width="3"/>
<rect x="184.5" y="423.5" width="17" height="29" fill="#69B0E0" stroke="white" stroke-width="3"/>
<rect x="284.5" y="107.5" width="17" height="29" fill="#69B0E0" stroke="white" stroke-width="3"/>
<rect x="284.5" y="152.5" width="17" height="29" fill="#69B0E0" stroke="white" stroke-width="3"/>
<rect x="284.5" y="197.5" width="17" height="29" fill="#69B0E0" stroke="white" stroke-width="3"/>
<rect x="284.5" y="242.5" width="17" height="29" fill="#69B0E0" stroke="white" stroke-width="3"/>
<rect x="284.5" y="287.5" width="17" height="29" fill="#69B0E0" stroke="white" stroke-width="3"/>
<rect x="284.5" y="333.5" width="17" height="29" fill="#69B0E0" stroke="white" stroke-width="3"/>
<rect x="284.5" y="378.5" width="17" height="29" fill="#69B0E0" stroke="white" stroke-width="3"/>
<rect x="284.5" y="423.5" width="17" height="29" fill="#69B0E0" stroke="white" stroke-width="3"/>
<rect x="215" y="102" width="56" height="361" fill="#69B0E0" stroke="white" stroke-width="4"/>
<line x1="217" y1="166" x2="269" y2="166" stroke="#429ED1" stroke-width="4"/>
<line x1="217" y1="192" x2="269" y2="192" stroke="#429ED1" stroke-width="4"/>
<line x1="217" y1="217" x2="269" y2="217" stroke="#429ED1" stroke-width="4"/>
<line x1="217" y1="242" x2="269" y2="242" stroke="#429ED1" stroke-width="4"/>
<line x1="217" y1="267" x2="269" y2="267" stroke="#429ED1" stroke-width="4"/>
<line x1="217" y1="292" x2="269" y2="292" stroke="#429ED1" stroke-width="4"/>
<line x1="217" y1="317" x2="269" y2="317" stroke="#429ED1" stroke-width="4"/>
<line x1="217" y1="343" x2="269" y2="343" stroke="#429ED1" stroke-width="4"/>
<line x1="217" y1="368" x2="269" y2="368" stroke="#429ED1" stroke-width="4"/>
<line x1="217" y1="393" x2="269" y2="393" stroke="#429ED1" stroke-width="4"/>
<line x1="217" y1="418" x2="269" y2="418" stroke="#429ED1" stroke-width="4"/>
<line x1="217" y1="443" x2="269" y2="443" stroke="#429ED1" stroke-width="4"/>
<path d="M243 139L243 460" stroke="#429ED1" stroke-width="4"/>
<line x1="217" y1="141" x2="269" y2="141" stroke="#429ED1" stroke-width="4"/>
<rect x="223" y="69" width="44" height="19" fill="#69B0E0" stroke="white" stroke-width="2"/>
<rect x="115" y="78" width="58" height="18" fill="#807F84"/>
<rect x="313" y="78" width="58" height="18" fill="#807F84"/>
<rect x="167" y="36" width="152" height="17" fill="#807F84"/>
<rect x="122" y="96" width="51" height="8" fill="#C1C6D0"/>
<rect x="173" y="53" width="140" height="8" fill="#C1C6D0"/>
<rect x="313" y="96" width="51" height="8" fill="#C1C6D0"/>
<rect x="166" y="96" width="7" height="364" fill="#C1C6D0"/>
<rect x="313" y="96" width="7" height="364" fill="#C1C6D0"/>
<rect x="110" y="460" width="265" height="14" fill="#44433F"/>
<rect y="473" width="486" height="13" fill="#373A3F"/>
</svg>
